# Tiled2Unity generated file. Do not modify by hand.
# Wavefront file for 'level2_mesh_0020.obj'

# Vertices (Count = 68)
v -80 -256 0
v -96 -256 0
v -96 -240 0
v -80 -240 0
v -96 -256 0
v -112 -256 0
v -112 -240 0
v -96 -240 0
v -112 -256 0
v -128 -256 0
v -128 -240 0
v -112 -240 0
v -128 -256 0
v -144 -256 0
v -144 -240 0
v -128 -240 0
v -144 -256 0
v -160 -256 0
v -160 -240 0
v -144 -240 0
v -160 -256 0
v -176 -256 0
v -176 -240 0
v -160 -240 0
v -256 -256 0
v -272 -256 0
v -272 -240 0
v -256 -240 0
v -336 -256 0
v -352 -256 0
v -352 -240 0
v -336 -240 0
v -640 -256 0
v -656 -256 0
v -656 -240 0
v -640 -240 0
v -656 -256 0
v -672 -256 0
v -672 -240 0
v -656 -240 0
v -672 -256 0
v -688 -256 0
v -688 -240 0
v -672 -240 0
v -688 -256 0
v -704 -256 0
v -704 -240 0
v -688 -240 0
v -848 -256 0
v -864 -256 0
v -864 -240 0
v -848 -240 0
v -864 -256 0
v -880 -256 0
v -880 -240 0
v -864 -240 0
v -880 -256 0
v -896 -256 0
v -896 -240 0
v -880 -240 0
v -896 -256 0
v -912 -256 0
v -912 -240 0
v -896 -240 0
v -944 -256 0
v -960 -256 0
v -960 -240 0
v -944 -240 0

# Texture cooridinates (Count = 4)
vt 0 0
vt 1 0
vt 1 1
vt 0 1

# Normal
vn 0 0 -1

# Mesh description
g level2_mesh_0020

# Faces
f 1/1/1 2/2/1 3/3/1 4/4/1
f 5/1/1 6/2/1 7/3/1 8/4/1
f 9/1/1 10/2/1 11/3/1 12/4/1
f 13/1/1 14/2/1 15/3/1 16/4/1
f 17/1/1 18/2/1 19/3/1 20/4/1
f 21/1/1 22/2/1 23/3/1 24/4/1
f 25/1/1 26/2/1 27/3/1 28/4/1
f 29/1/1 30/2/1 31/3/1 32/4/1
f 33/1/1 34/2/1 35/3/1 36/4/1
f 37/1/1 38/2/1 39/3/1 40/4/1
f 41/1/1 42/2/1 43/3/1 44/4/1
f 45/1/1 46/2/1 47/3/1 48/4/1
f 49/1/1 50/2/1 51/3/1 52/4/1
f 53/1/1 54/2/1 55/3/1 56/4/1
f 57/1/1 58/2/1 59/3/1 60/4/1
f 61/1/1 62/2/1 63/3/1 64/4/1
f 65/1/1 66/2/1 67/3/1 68/4/1

