# Tiled2Unity generated file. Do not modify by hand.
# Wavefront file for 'level2_mesh_0002.obj'

# Vertices (Count = 56)
v -544 -16 0
v -560 -16 0
v -560 0 0
v -544 0 0
v -560 -16 0
v -576 -16 0
v -576 0 0
v -560 0 0
v -528 -32 0
v -544 -32 0
v -544 -16 0
v -528 -16 0
v -544 -32 0
v -560 -32 0
v -560 -16 0
v -544 -16 0
v -560 -32 0
v -576 -32 0
v -576 -16 0
v -560 -16 0
v -512 -48 0
v -528 -48 0
v -528 -32 0
v -512 -32 0
v -528 -48 0
v -544 -48 0
v -544 -32 0
v -528 -32 0
v -544 -48 0
v -560 -48 0
v -560 -32 0
v -544 -32 0
v -560 -48 0
v -576 -48 0
v -576 -32 0
v -560 -32 0
v -496 -64 0
v -512 -64 0
v -512 -48 0
v -496 -48 0
v -512 -64 0
v -528 -64 0
v -528 -48 0
v -512 -48 0
v -528 -64 0
v -544 -64 0
v -544 -48 0
v -528 -48 0
v -544 -64 0
v -560 -64 0
v -560 -48 0
v -544 -48 0
v -560 -64 0
v -576 -64 0
v -576 -48 0
v -560 -48 0

# Texture cooridinates (Count = 4)
vt 0 0
vt 1 0
vt 1 1
vt 0 1

# Normal
vn 0 0 -1

# Mesh description
g level2_mesh_0002

# Faces
f 1/1/1 2/2/1 3/3/1 4/4/1
f 5/1/1 6/2/1 7/3/1 8/4/1
f 9/1/1 10/2/1 11/3/1 12/4/1
f 13/1/1 14/2/1 15/3/1 16/4/1
f 17/1/1 18/2/1 19/3/1 20/4/1
f 21/1/1 22/2/1 23/3/1 24/4/1
f 25/1/1 26/2/1 27/3/1 28/4/1
f 29/1/1 30/2/1 31/3/1 32/4/1
f 33/1/1 34/2/1 35/3/1 36/4/1
f 37/1/1 38/2/1 39/3/1 40/4/1
f 41/1/1 42/2/1 43/3/1 44/4/1
f 45/1/1 46/2/1 47/3/1 48/4/1
f 49/1/1 50/2/1 51/3/1 52/4/1
f 53/1/1 54/2/1 55/3/1 56/4/1

