# Tiled2Unity generated file. Do not modify by hand.
# Wavefront file for 'level2_mesh_0016.obj'

# Vertices (Count = 80)
v -32 -128 0
v -48 -128 0
v -48 -112 0
v -32 -112 0
v -80 -128 0
v -96 -128 0
v -96 -112 0
v -80 -112 0
v -128 -128 0
v -144 -128 0
v -144 -112 0
v -128 -112 0
v -176 -128 0
v -192 -128 0
v -192 -112 0
v -176 -112 0
v -224 -128 0
v -240 -128 0
v -240 -112 0
v -224 -112 0
v -272 -128 0
v -288 -128 0
v -288 -112 0
v -272 -112 0
v -320 -128 0
v -336 -128 0
v -336 -112 0
v -320 -112 0
v -368 -128 0
v -384 -128 0
v -384 -112 0
v -368 -112 0
v -416 -128 0
v -432 -128 0
v -432 -112 0
v -416 -112 0
v -464 -128 0
v -480 -128 0
v -480 -112 0
v -464 -112 0
v -512 -128 0
v -528 -128 0
v -528 -112 0
v -512 -112 0
v -560 -128 0
v -576 -128 0
v -576 -112 0
v -560 -112 0
v -608 -128 0
v -624 -128 0
v -624 -112 0
v -608 -112 0
v -656 -128 0
v -672 -128 0
v -672 -112 0
v -656 -112 0
v -704 -128 0
v -720 -128 0
v -720 -112 0
v -704 -112 0
v -752 -128 0
v -768 -128 0
v -768 -112 0
v -752 -112 0
v -800 -128 0
v -816 -128 0
v -816 -112 0
v -800 -112 0
v -848 -128 0
v -864 -128 0
v -864 -112 0
v -848 -112 0
v -896 -128 0
v -912 -128 0
v -912 -112 0
v -896 -112 0
v -944 -128 0
v -960 -128 0
v -960 -112 0
v -944 -112 0

# Texture cooridinates (Count = 4)
vt 0 0
vt 1 0
vt 1 1
vt 0 1

# Normal
vn 0 0 -1

# Mesh description
g level2_mesh_0016

# Faces
f 1/1/1 2/2/1 3/3/1 4/4/1
f 5/1/1 6/2/1 7/3/1 8/4/1
f 9/1/1 10/2/1 11/3/1 12/4/1
f 13/1/1 14/2/1 15/3/1 16/4/1
f 17/1/1 18/2/1 19/3/1 20/4/1
f 21/1/1 22/2/1 23/3/1 24/4/1
f 25/1/1 26/2/1 27/3/1 28/4/1
f 29/1/1 30/2/1 31/3/1 32/4/1
f 33/1/1 34/2/1 35/3/1 36/4/1
f 37/1/1 38/2/1 39/3/1 40/4/1
f 41/1/1 42/2/1 43/3/1 44/4/1
f 45/1/1 46/2/1 47/3/1 48/4/1
f 49/1/1 50/2/1 51/3/1 52/4/1
f 53/1/1 54/2/1 55/3/1 56/4/1
f 57/1/1 58/2/1 59/3/1 60/4/1
f 61/1/1 62/2/1 63/3/1 64/4/1
f 65/1/1 66/2/1 67/3/1 68/4/1
f 69/1/1 70/2/1 71/3/1 72/4/1
f 73/1/1 74/2/1 75/3/1 76/4/1
f 77/1/1 78/2/1 79/3/1 80/4/1

