# Tiled2Unity generated file. Do not modify by hand.
# Wavefront file for 'level2_mesh_0013.obj'

# Vertices (Count = 16)
v -736 -112 0
v -752 -112 0
v -752 -96 0
v -736 -96 0
v -320 -240 0
v -336 -240 0
v -336 -224 0
v -320 -224 0
v -560 -384 0
v -576 -384 0
v -576 -368 0
v -560 -368 0
v -944 -384 0
v -960 -384 0
v -960 -368 0
v -944 -368 0

# Texture cooridinates (Count = 4)
vt 0 0
vt 1 0
vt 1 1
vt 0 1

# Normal
vn 0 0 -1

# Mesh description
g level2_mesh_0013

# Faces
f 1/1/1 2/2/1 3/3/1 4/4/1
f 5/1/1 6/2/1 7/3/1 8/4/1
f 9/1/1 10/2/1 11/3/1 12/4/1
f 13/1/1 14/2/1 15/3/1 16/4/1

