# Tiled2Unity generated file. Do not modify by hand.
# Wavefront file for 'level1_mesh_0013.obj'

# Vertices (Count = 20)
v -128 -272 0
v -144 -272 0
v -144 -256 0
v -128 -256 0
v -208 -272 0
v -224 -272 0
v -224 -256 0
v -208 -256 0
v -320 -272 0
v -336 -272 0
v -336 -256 0
v -320 -256 0
v -480 -272 0
v -496 -272 0
v -496 -256 0
v -480 -256 0
v -512 -272 0
v -528 -272 0
v -528 -256 0
v -512 -256 0

# Texture cooridinates (Count = 4)
vt 0 0
vt 1 0
vt 1 1
vt 0 1

# Normal
vn 0 0 -1

# Mesh description
g level1_mesh_0013

# Faces
f 1/1/1 2/2/1 3/3/1 4/4/1
f 5/1/1 6/2/1 7/3/1 8/4/1
f 9/1/1 10/2/1 11/3/1 12/4/1
f 13/1/1 14/2/1 15/3/1 16/4/1
f 17/1/1 18/2/1 19/3/1 20/4/1

