# Tiled2Unity generated file. Do not modify by hand.
# Wavefront file for 'level1_mesh_0022.obj'

# Vertices (Count = 48)
v -80 -352 0
v -96 -352 0
v -96 -336 0
v -80 -336 0
v -576 -352 0
v -592 -352 0
v -592 -336 0
v -576 -336 0
v -144 -368 0
v -160 -368 0
v -160 -352 0
v -144 -352 0
v -336 -368 0
v -352 -368 0
v -352 -352 0
v -336 -352 0
v -544 -368 0
v -560 -368 0
v -560 -352 0
v -544 -352 0
v -752 -368 0
v -768 -368 0
v -768 -352 0
v -752 -352 0
v -16 -384 0
v -32 -384 0
v -32 -368 0
v -16 -368 0
v -80 -384 0
v -96 -384 0
v -96 -368 0
v -80 -368 0
v -192 -384 0
v -208 -384 0
v -208 -368 0
v -192 -368 0
v -368 -384 0
v -384 -384 0
v -384 -368 0
v -368 -368 0
v -608 -384 0
v -624 -384 0
v -624 -368 0
v -608 -368 0
v -528 -400 0
v -544 -400 0
v -544 -384 0
v -528 -384 0

# Texture cooridinates (Count = 4)
vt 0 0
vt 1 0
vt 1 1
vt 0 1

# Normal
vn 0 0 -1

# Mesh description
g level1_mesh_0022

# Faces
f 1/1/1 2/2/1 3/3/1 4/4/1
f 5/1/1 6/2/1 7/3/1 8/4/1
f 9/1/1 10/2/1 11/3/1 12/4/1
f 13/1/1 14/2/1 15/3/1 16/4/1
f 17/1/1 18/2/1 19/3/1 20/4/1
f 21/1/1 22/2/1 23/3/1 24/4/1
f 25/1/1 26/2/1 27/3/1 28/4/1
f 29/1/1 30/2/1 31/3/1 32/4/1
f 33/1/1 34/2/1 35/3/1 36/4/1
f 37/1/1 38/2/1 39/3/1 40/4/1
f 41/1/1 42/2/1 43/3/1 44/4/1
f 45/1/1 46/2/1 47/3/1 48/4/1

