# Tiled2Unity generated file. Do not modify by hand.
# Wavefront file for 'level1_mesh_0016.obj'

# Vertices (Count = 28)
v -32 -288 0
v -48 -288 0
v -48 -272 0
v -32 -272 0
v -112 -288 0
v -128 -288 0
v -128 -272 0
v -112 -272 0
v -128 -288 0
v -144 -288 0
v -144 -272 0
v -128 -272 0
v -272 -288 0
v -288 -288 0
v -288 -272 0
v -272 -272 0
v -496 -288 0
v -512 -288 0
v -512 -272 0
v -496 -272 0
v -528 -288 0
v -544 -288 0
v -544 -272 0
v -528 -272 0
v -640 -288 0
v -656 -288 0
v -656 -272 0
v -640 -272 0

# Texture cooridinates (Count = 4)
vt 0 0
vt 1 0
vt 1 1
vt 0 1

# Normal
vn 0 0 -1

# Mesh description
g level1_mesh_0016

# Faces
f 1/1/1 2/2/1 3/3/1 4/4/1
f 5/1/1 6/2/1 7/3/1 8/4/1
f 9/1/1 10/2/1 11/3/1 12/4/1
f 13/1/1 14/2/1 15/3/1 16/4/1
f 17/1/1 18/2/1 19/3/1 20/4/1
f 21/1/1 22/2/1 23/3/1 24/4/1
f 25/1/1 26/2/1 27/3/1 28/4/1

